#define im_width 10
#define im_height 10
static char im_bits[] = {
0x0f,0x00,0x07,0x02,0x03,0x03,0x81,0x03,0xc0,0x03,0xe0,0x01,0xf0,0x00,0x78,
0x00,0x3c,0x00,0x1e,0x00
};
